# xmcd
#
# Track frame offsets:
#	150
#	18693
#	38686
#	60831
#	75522
#	93403
#	115436
#	130253
#	146363
#	164198
#	180943
#	195980
#	214753
#	234422
#	252320
#	271115
#	290025
#
# Disc length: 4158 seconds
#
# Revision: 0
# Processed by: cddbd v1.5.2PL0 Copyright (c) Steve Scherf et al.
# Submitted via: EZCDAudioConverter 3.0.8.2
#
DISCID=e9103c11
DTITLE=Randy Crawford - The Best of Randy Crawford
DYEAR=2011
DGENRE=
TTITLE0=Pewnego dnia odlecę 
TTITLE1=Może potrzebujesz kogoś 
TTITLE2=Życie ulicy 
TTITLE3=Rainy Night in Georgia 
TTITLE4=You Bring promieniach słońca
TTITLE5=Last Night w Danceland 
TTITLE6=Rio de Janeiro Niebieski 
TTITLE7=Tajny Combination 
TTITLE8=Co różnica Day Makes 
TTITLE9=Wyobrażać sobie
TTITLE10=Zużyte, ale nie Tattered
TTITLE11=Przypomina mi 
TTITLE12=Tender Falls Rain
TTITLE13=Diamante
TTITLE14=Give Me The Night 
TTITLE15=Wszystko musi zmienić 
TTITLE16=Almaz 
EXTD=
EXTT0=
EXTT1=
EXTT2=
EXTT3=
EXTT4=
EXTT5=
EXTT6=
EXTT7=
EXTT8=
EXTT9=
EXTT10=
EXTT11=
EXTT12=
EXTT13=
EXTT14=
EXTT15=
EXTT16=
PLAYORDER=
